<svg xmlns="http://www.w3.org/2000/svg" viewBox="0 0 26 26">
  <g fill="none" fill-rule="evenodd" transform="translate(1 1)">
    <ellipse cx="12" cy="12" fill="#0DD12F" rx="12" ry="12"/>
    <path fill="#FFF" d="M5.984 8c-.55 0-.998.446-.998.998v7.004c0 .55.45.998.998.998h9.475c.55 0 .997-.446.997-.998V8.998c0-.55-.45-.998-.998-.998H5.983zm10.73 3.135v2.613l3.733 1.743V10.4c0-.556-.4-.82-.903-.585l-2.83 1.322zm4.148-2.015c-.077 0-.138.058-.138.14v6.61H21V9.26c0-.077-.064-.14-.138-.14zM4.276 10.24c-.152 0-.276.12-.276.282v.555c0 .156.128.282.276.282h.277v-1.12h-.277z"/>
  </g>
</svg>
