<?xml version="1.0" encoding="UTF-8" standalone="no"?>
<svg width="26px" height="26px" viewBox="0 0 26 26" version="1.1" xmlns="http://www.w3.org/2000/svg" xmlns:xlink="http://www.w3.org/1999/xlink" xmlns:sketch="http://www.bohemiancoding.com/sketch/ns">
    <!-- Generator: Sketch 3.4.4 (17249) - http://www.bohemiancoding.com/sketch -->
    <title>Messenger</title>
    <desc>Created with Sketch.</desc>
    <defs></defs>
    <g id="Page-1" stroke="none" stroke-width="1" fill="none" fill-rule="evenodd" sketch:type="MSPage">
        <g id="Messenger" sketch:type="MSArtboardGroup">
            <g sketch:type="MSLayerGroup" transform="translate(1.000000, 1.000000)">
                <ellipse id="Background" fill="#0084FF" sketch:type="MSShapeGroup" cx="12" cy="12" rx="12" ry="12"></ellipse>
                <path d="M12,5 C8.134,5 5,7.90184568 5,11.4814815 C5,13.5212037 6.01791304,15.3405988 7.60869565,16.5286975 L7.60869565,19 L9.99213043,17.6919074 C10.6282174,17.8679444 11.302087,17.962963 12,17.962963 C15.866,17.962963 19,15.0611173 19,11.4814815 C19,7.90184568 15.866,5 12,5 L12,5 Z M12.6956522,13.7283951 L10.9130435,11.8271605 L7.43478261,13.7283951 L11.2608696,9.66666667 L13.0869565,11.5679012 L16.5217391,9.66666667 L12.6956522,13.7283951 L12.6956522,13.7283951 Z" id="Shape" fill="#FFFFFF" sketch:type="MSShapeGroup"></path>
            </g>
        </g>
    </g>
</svg>