<svg xmlns="http://www.w3.org/2000/svg" viewBox="0 0 26 26">
  <g fill="none" fill-rule="evenodd">
    <circle cx="13" cy="13" r="12" fill="#70AD46"/>
    <path fill="#FFF" d="M19.87 11.316c-.266-1.48-.9-2.776-1.9-3.88-.42-.466-.894-.87-1.416-1.215-.972-.64-2.032-1.032-3.18-1.17-.14-.018-.282-.016-.42-.05h-.99c-.012.026-.035.016-.053.018-.254.023-.508.053-.76.102-1.84.357-3.352 1.283-4.522 2.78-.962 1.23-1.492 2.64-1.607 4.215-.054.762 0 1.518.162 2.264.122.553.303 1.09.546 1.6.02.045.042.088.064.132.4.806.914 1.525 1.558 2.146.34.326.7.622 1.094.877 1.202.782 2.514 1.193 3.94 1.21.088.002.11.024.11.116-.003.783 0 1.565 0 2.347 0 .03 0 .06.003.1l.055-.025c1.433-.69 2.75-1.562 3.922-2.655.234-.218.457-.445.672-.683.092-.1.183-.204.276-.306.142-.156.265-.33.4-.495.154-.19.294-.39.43-.593.304-.45.575-.916.803-1.41.116-.25.225-.5.322-.76.004-.004.008-.008.01-.013.265-.705.434-1.435.525-2.184.03-.26.052-.523.065-.785.027-.565-.01-1.126-.108-1.682z"/>
    <path fill="#70AD46" d="M15.002 15.98c-.17.05-.34.09-.514.116-.133.02-.234-.057-.236-.194l-.002-.29c0-.17.003-.343.004-.516.05-.115.154-.135.256-.16.474-.11.765-.427.834-.918.008-.06.045-.126.002-.19-.55 0-1.098 0-1.648-.002h-.18c-.223-.004-.377-.163-.377-.394l.003-2.73v-.026c.023-.01.025-.036.035-.056.074-.136.185-.21.34-.21.86 0 1.723 0 2.584.002.176 0 .307.105.357.28.017.043.014.09.014.136v3.017c0 .898-.55 1.74-1.36 2.084-.02.008-.04.02-.06.03l-.034.01-.018.01zM11.035 15.593c-.247.194-.514.347-.816.43-.13.037-.26.057-.392.077-.102.015-.168-.043-.206-.137v-.866c.048-.11.148-.134.247-.157.48-.114.758-.41.84-.906.01-.066.048-.136.005-.205l-1.783-.004c-.052 0-.103-.002-.153-.016-.152-.043-.268-.185-.268-.345-.002-.92 0-1.842 0-2.764.065-.17.174-.287.365-.288h2.604c.17 0 .302.11.35.28.017.044.013.09.013.136 0 1.004.006 2.01 0 3.012-.006.667-.26 1.227-.735 1.68l-.073.073z"/>
  </g>
</svg>
