<?xml version="1.0" encoding="UTF-8" standalone="no"?>
<svg width="26px" height="26px" viewBox="0 0 26 26" version="1.1" xmlns="http://www.w3.org/2000/svg" xmlns:xlink="http://www.w3.org/1999/xlink" xmlns:sketch="http://www.bohemiancoding.com/sketch/ns">
    <!-- Generator: Sketch 3.4.4 (17249) - http://www.bohemiancoding.com/sketch -->
    <title>Hangouts</title>
    <desc>Created with Sketch.</desc>
    <defs></defs>
    <g id="Page-1" stroke="none" stroke-width="1" fill="none" fill-rule="evenodd" sketch:type="MSPage">
        <g id="Hangouts" sketch:type="MSArtboardGroup">
            <circle id="Oval-60" fill="#70AD46" sketch:type="MSShapeGroup" cx="13" cy="13" r="12"></circle>
            <g id="google-hangouts" sketch:type="MSLayerGroup" transform="translate(5.000000, 5.000000)">
                <g id="Layer_1" sketch:type="MSShapeGroup">
                    <g id="Group">
                        <path d="M14.8691772,6.31624865 C14.604019,4.83460541 13.970981,3.54045405 12.9710127,2.43603243 C12.5489241,1.96978378 12.0759494,1.56463784 11.5539873,1.22069189 C10.5816456,0.580086486 9.52243671,0.187589189 8.37379747,0.0485513514 C8.23376582,0.0315243243 8.09174051,0.0337621622 7.95370253,0 L6.96265823,0 C6.95193038,0.0255891892 6.9289557,0.0162486486 6.91072785,0.018 C6.65553797,0.0410594595 6.40158228,0.0708324324 6.14971519,0.119772973 C4.30917722,0.477048649 2.79768987,1.40322162 1.62778481,2.89926486 C0.665506329,4.12958919 0.13556962,5.54098378 0.0210759494,7.11467027 C-0.0343670886,7.87738378 0.0193670886,8.63299459 0.182468354,9.37858378 C0.303607595,9.93317838 0.484556962,10.4689946 0.72778481,10.9811676 C0.74914557,11.0247568 0.770221519,11.0683459 0.791962025,11.1119351 C1.19155063,11.9183351 1.70553797,12.636973 2.34968354,13.2576324 C2.68879747,13.5843568 3.05126582,13.8799459 3.44363924,14.1353514 C4.64591772,14.917427 5.95832278,15.3275351 7.38408228,15.345827 C7.47161392,15.3470919 7.49544304,15.3691784 7.49487342,15.4608324 C7.49088608,16.2429081 7.49259494,17.0250811 7.49278481,17.8072541 C7.49287975,17.8376108 7.49515823,17.8678703 7.49686709,17.9056216 C7.52155063,17.8953081 7.53702532,17.8894703 7.55193038,17.8822703 C8.98518987,17.1921405 10.3012025,16.3200649 11.4744304,15.2269297 C11.7078797,15.0094703 11.9312658,14.7816 12.1461076,14.5442919 C12.2381013,14.4428108 12.3293354,14.3395784 12.421519,14.2381946 C12.5639241,14.0821297 12.6871519,13.907773 12.8213924,13.7434378 C12.9764241,13.5539027 13.1156013,13.3524 13.2528797,13.1496324 C13.5563924,12.7014811 13.8274367,12.2339676 14.0552848,11.7400865 C14.170538,11.4904216 14.2802848,11.2388108 14.3774051,10.9812649 C14.3806329,10.9764 14.385,10.9721189 14.3870886,10.9668649 C14.6517722,10.2616541 14.8214241,9.53192432 14.9117089,8.78322162 C14.9432278,8.52246486 14.9636392,8.26005405 14.9765506,7.99783784 C15.0040823,7.43322162 14.968481,6.87181622 14.8691772,6.31624865 L14.8691772,6.31624865 Z" id="Shape" fill="#FFFFFF"></path>
                        <path d="M10.002057,10.9802919 C9.83287975,11.0293297 9.66218354,11.07 9.48768987,11.0960757 C9.35458861,11.1161189 9.2539557,11.0390595 9.25234177,10.9018703 C9.25101266,10.8057405 9.2503481,10.7094162 9.24958861,10.6131892 C9.25120253,10.4408757 9.25281646,10.2685622 9.25443038,10.0963459 C9.3028481,9.98124324 9.40765823,9.96051892 9.50990506,9.93668108 C9.98439873,9.82692973 10.2751899,9.50935135 10.3435443,9.0180973 C10.3520886,8.9568 10.3889241,8.89229189 10.3457278,8.82904865 C9.79661392,8.82788108 9.24768987,8.82690811 8.69838608,8.82583784 C8.63867089,8.82574054 8.57876582,8.82661622 8.51905063,8.82554595 C8.29481013,8.82175135 8.14129747,8.66286486 8.14129747,8.43178378 C8.14158228,7.52195676 8.14281646,6.61222703 8.14338608,5.7023027 C8.14338608,5.69354595 8.14243671,5.68478919 8.14186709,5.67603243 C8.16579114,5.66542703 8.16759494,5.63964324 8.17822785,5.61989189 C8.25237342,5.48416216 8.36306962,5.41109189 8.51724684,5.41109189 C9.37898734,5.41128649 10.2407278,5.4108 11.1023734,5.41157838 C11.2778165,5.41167568 11.4092089,5.51685405 11.4591456,5.69121081 C11.4768038,5.73538378 11.4735759,5.78198919 11.4735759,5.82810811 C11.4735759,6.83367568 11.4740506,7.83924324 11.4732911,8.84490811 C11.4725316,9.74325405 10.9232278,10.5839027 10.1136076,10.9290162 C10.0929114,10.937773 10.0735443,10.9493514 10.0536076,10.9595676 C10.0425949,10.9625838 10.0314873,10.9657946 10.0201899,10.9691027 C10.0146835,10.9728973 10.0083228,10.9765946 10.002057,10.9802919 L10.002057,10.9802919 Z" id="Shape" fill="#70AD46"></path>
                        <path d="M6.03474684,10.5934378 C5.78781646,10.7870595 5.5210443,10.9400108 5.21857595,11.0237838 C5.08993671,11.0595892 4.95873418,11.0801189 4.82762658,11.099773 C4.72623418,11.1149514 4.66015823,11.0572541 4.62237342,10.9634595 C4.62275316,10.6744865 4.62303797,10.3857081 4.62341772,10.0968324 C4.66993671,9.98601081 4.76952532,9.96324324 4.86939873,9.9396973 C5.35129747,9.82576216 5.62765823,9.53114595 5.71015823,9.03444324 C5.72107595,8.96837838 5.75762658,8.89822703 5.71490506,8.82914595 C5.12041139,8.82797838 4.52610759,8.82690811 3.93161392,8.82612973 C3.88015823,8.82603243 3.82946203,8.82418378 3.77933544,8.80997838 C3.62781646,8.76697297 3.5118038,8.62530811 3.51161392,8.46505946 C3.51047468,7.54384865 3.51227848,6.62254054 3.51294304,5.70132973 C3.57712025,5.5295027 3.68620253,5.41274595 3.87655063,5.41235676 C4.74455696,5.41060541 5.61265823,5.41109189 6.48066456,5.41206486 C6.64917722,5.41225946 6.78199367,5.52191351 6.82889241,5.6915027 C6.84674051,5.73567568 6.84341772,5.78237838 6.84341772,5.8284973 C6.84360759,6.83231351 6.84911392,7.83651892 6.84161392,8.84033514 C6.83677215,9.50652973 6.58367089,10.0667676 6.1078481,10.5210486 C6.08316456,10.5446919 6.05914557,10.5693081 6.03474684,10.5934378 L6.03474684,10.5934378 Z" id="Shape" fill="#70AD46"></path>
                    </g>
                </g>
            </g>
        </g>
    </g>
</svg>