<?xml version="1.0" encoding="UTF-8" standalone="no"?>
<svg width="26px" height="26px" viewBox="0 0 26 26" version="1.1" xmlns="http://www.w3.org/2000/svg" xmlns:xlink="http://www.w3.org/1999/xlink" xmlns:sketch="http://www.bohemiancoding.com/sketch/ns">
    <!-- Generator: Sketch 3.4.4 (17249) - http://www.bohemiancoding.com/sketch -->
    <title>Hipchat</title>
    <desc>Created with Sketch.</desc>
    <defs></defs>
    <g id="Page-1" stroke="none" stroke-width="1" fill="none" fill-rule="evenodd" sketch:type="MSPage">
        <g id="Hipchat" sketch:type="MSArtboardGroup">
            <circle id="Oval-60" fill="#274970" sketch:type="MSShapeGroup" cx="13" cy="13" r="12"></circle>
            <g id="hipchat" sketch:type="MSLayerGroup" transform="translate(5.000000, 6.000000)" fill="#FFFFFF">
                <g id="Group" sketch:type="MSShapeGroup">
                    <path d="M12.1191474,8.4180857 C12.1189569,8.25339718 11.9859624,8.10526357 11.807144,8.10526357 C11.7349307,8.10526357 11.6610978,8.12995251 11.6005072,8.1845935 C10.8112101,8.89693609 9.46802347,9.52698225 7.84350985,9.53119279 L7.83693631,9.53119279 C6.21518547,9.52698225 4.91048721,8.87176872 4.07984362,8.18478495 C4.02725556,8.14134008 3.92989144,8.11157935 3.86682389,8.11157935 C3.67381048,8.11157935 3.56158451,8.27655503 3.56139398,8.45798991 C3.56129871,8.59798955 3.65894863,8.714927 3.73935501,8.83617071 C4.20502606,9.53836976 5.64948277,10.7308068 7.8232177,10.7308068 L7.85722846,10.7308068 C10.0308681,10.7308068 11.4753248,9.53836976 11.9410911,8.83617071 C12.0214975,8.714927 12.1192427,8.55808534 12.1191474,8.4180857" id="Shape"></path>
                    <path d="M12.1780409,13.2066792 C12.2026202,13.2395021 12.2156719,13.2674446 12.2156719,13.2977795 C12.2156719,13.3433296 12.1726107,13.3746214 12.1184983,13.3746214 C11.7259933,13.3746214 10.5166585,12.7200777 9.88007627,12.1806533 C9.79290588,12.1068736 9.67096258,12.0797924 9.49786023,12.117687 C8.96683516,12.2337632 8.40980189,12.2963467 7.8348582,12.2963467 C4.23333851,12.2963467 1.31355818,9.87510928 1.31355818,6.88736614 C1.31355818,3.90115409 4.23333851,1.48020368 7.8348582,1.48020368 C11.4360921,1.48020368 14.3556819,3.90115409 14.3556819,6.88736614 C14.3556819,8.67013643 13.3159245,10.2508977 11.7122747,11.236254 C11.6050979,11.3020911 11.4908713,11.4259185 11.4908713,11.5808463 C11.4908713,11.8988359 11.7883939,12.6871591 12.1780409,13.2066792 L12.1780409,13.2066792 L12.1780409,13.2066792 Z M14.2747991,13.8666775 C13.7213861,13.5500276 13.1961724,13.0146223 12.9555249,12.2808444 C12.9083671,12.1370171 12.9502851,12.0207494 13.060701,11.935008 C14.6617787,10.6916621 15.6692401,8.8864995 15.6692401,6.87617001 C15.6692401,3.12670642 12.1615596,0.0871930804 7.8349535,0.0871930804 C3.50787103,0.0871930804 0,3.12670642 0,6.87617001 C0,10.6274517 3.50787103,13.6675392 7.8349535,13.6675392 C8.40027504,13.6675392 8.95149697,13.6155776 9.48290312,13.5169176 C9.61332529,13.4927072 9.71935879,13.5234248 9.80614818,13.5770132 C10.878392,14.2378726 12.4750873,14.7922252 13.8753395,14.7922252 C14.3264345,14.7922252 14.499918,14.5048576 14.499918,14.2431358 C14.499918,14.0743324 14.4088415,13.943328 14.2747991,13.8666775 L14.2747991,13.8666775 L14.2747991,13.8666775 Z" id="Shape"></path>
                </g>
            </g>
        </g>
    </g>
</svg>