<svg xmlns="http://www.w3.org/2000/svg" viewBox="0 0 26 26">
  <g fill="none" fill-rule="evenodd">
    <circle cx="13" cy="13" r="12" fill="#274970"/>
    <g fill="#FFF">
      <path d="M17.12 14.418c0-.165-.134-.313-.313-.313-.072 0-.146.025-.206.08-.79.712-2.132 1.342-3.756 1.346h-.007c-1.622-.003-2.927-.658-3.757-1.345-.053-.044-.15-.073-.213-.073-.193 0-.305.165-.306.346 0 .14.1.257.18.378.465.702 1.91 1.895 4.083 1.895h.034c2.174 0 3.618-1.192 4.084-1.894.08-.12.18-.278.18-.418"/>
      <path d="M17.178 19.207c.025.033.038.06.038.09 0 .046-.043.078-.098.078-.392 0-1.6-.655-2.238-1.194-.087-.073-.21-.1-.382-.062-.53.116-1.088.178-1.663.178-3.602 0-6.52-2.42-6.52-5.41 0-2.985 2.918-5.406 6.52-5.406 3.6 0 6.52 2.42 6.52 5.407 0 1.783-1.04 3.364-2.643 4.35-.107.065-.22.19-.22.344 0 .32.296 1.107.686 1.627zm2.097.66c-.554-.317-1.08-.852-1.32-1.586-.047-.143-.005-.26.106-.345 1.602-1.243 2.61-3.05 2.61-5.06 0-3.748-3.508-6.788-7.835-6.788S5 9.127 5 12.877s3.508 6.79 7.835 6.79c.565 0 1.116-.05 1.648-.15.13-.024.236.006.323.06 1.072.66 2.67 1.215 4.07 1.215.45 0 .624-.287.624-.55 0-.168-.09-.3-.225-.375z"/>
    </g>
  </g>
</svg>
