<?xml version="1.0" encoding="UTF-8" standalone="no"?>
<svg width="26px" height="26px" viewBox="0 0 26 26" version="1.1" xmlns="http://www.w3.org/2000/svg" xmlns:xlink="http://www.w3.org/1999/xlink" xmlns:sketch="http://www.bohemiancoding.com/sketch/ns">
    <!-- Generator: Sketch 3.4.4 (17249) - http://www.bohemiancoding.com/sketch -->
    <title>Kakao</title>
    <desc>Created with Sketch.</desc>
    <defs></defs>
    <g id="Page-1" stroke="none" stroke-width="1" fill="none" fill-rule="evenodd" sketch:type="MSPage">
        <g id="Kakao" sketch:type="MSArtboardGroup">
            <g sketch:type="MSLayerGroup" transform="translate(1.000000, 1.000000)" fill="#FBDE24">
                <ellipse id="Background" sketch:type="MSShapeGroup" cx="12" cy="12" rx="12" ry="12"></ellipse>
                <path d="M7.161,13.721 C7.161,14.1215 7.755,14.1125 7.755,13.721 L7.755,11.4485 L8.502,11.4485 C8.9025,11.4485 8.9025,10.8725 8.502,10.8725 L6.3735,10.8725 C5.982,10.8725 5.982,11.4485 6.3735,11.4485 L7.161,11.4485 L7.161,13.721 Z M9.5685,13.847 L9.762,13.451 L11.4225,13.451 L11.6205,13.847 C11.7825,14.198 12.327,13.919 12.1425,13.568 L10.8735,11.0435 C10.761,10.796 10.437,10.805 10.3155,11.0435 L9.024,13.568 C8.934,13.757 9.024,13.919 9.168,14 C9.33,14.0315 9.4965,14 9.5685,13.847 L9.5685,13.847 Z M10.041,12.857 L10.5945,11.7455 L11.103,12.857 L10.041,12.857 Z M12.552,13.7255 C12.552,13.8875 12.678,14 12.8355,14 L14.325,14 C14.775,14 14.766,13.4105 14.325,13.4105 L13.101,13.4105 L13.101,11.156 C13.101,11.0075 12.9795,10.8815 12.8355,10.8815 C12.678,10.8815 12.552,11.0075 12.552,11.156 L12.552,13.7255 Z M17.1465,13.8965 C17.3265,14.1845 17.9025,13.9145 17.6325,13.541 L16.5795,12.2675 C16.8675,11.9525 17.178,11.6735 17.4435,11.3585 C17.5695,11.237 17.5695,11.0795 17.4435,10.958 C17.331,10.8455 17.1735,10.8095 17.016,10.958 L15.7155,12.299 L15.7155,11.156 C15.7155,10.76 15.1215,10.7735 15.1215,11.156 L15.1215,13.7255 C15.1215,14.1035 15.7155,14.099 15.7155,13.7255 L15.7155,13.0955 L16.143,12.623 L17.1465,13.8965 Z" id="Talk" sketch:type="MSShapeGroup"></path>
            </g>
            <g id="Group" sketch:type="MSLayerGroup" transform="translate(4.000000, 4.000000)">
                <path d="M0.120535714,7.75588235 C0.120535714,10.4684956 1.78253237,12.8486912 4.28261384,14.1927221 C4.14660435,14.701725 3.40858426,17.4672397 3.37921373,17.6844971 C3.37921373,17.6844971 3.36154018,17.8477412 3.45895815,17.91 C3.55637612,17.9722588 3.67095536,17.9238971 3.67095536,17.9238971 C3.95031696,17.8815574 6.91050837,15.6252309 7.42287054,15.2334265 C7.93472042,15.3120838 8.46176786,15.3529412 9,15.3529412 C13.9040257,15.3529412 17.8794643,11.9516824 17.8794643,7.75588235 C17.8794643,3.560175 13.9040257,0.158823529 9,0.158823529 C4.09597433,0.158823529 0.120535714,3.560175 0.120535714,7.75588235 Z" id="Shape" fill="#37201F" sketch:type="MSShapeGroup"></path>
                <path d="M4.0906808,10.4079044 C3.80816016,10.4079044 3.57840402,10.1698015 3.57840402,9.87703676 L3.57840402,6.57463235 L2.77908147,6.57463235 C2.50185435,6.57463235 2.27636719,6.33041471 2.27636719,6.03033088 C2.27636719,5.73024706 2.50193973,5.48602941 2.77908147,5.48602941 L5.40228013,5.48602941 C5.67950725,5.48602941 5.90499442,5.73024706 5.90499442,6.03033088 C5.90499442,6.33041471 5.67942188,6.57463235 5.40228013,6.57463235 L4.60295759,6.57463235 L4.60295759,9.87703676 C4.60295759,10.1698015 4.37320145,10.4079044 4.0906808,10.4079044 L4.0906808,10.4079044 Z" id="Shape" fill="#FFE812" sketch:type="MSShapeGroup"></path>
                <path d="M8.58266518,10.4006779 C8.36904576,10.4006779 8.20562946,10.3065485 8.15636551,10.1551632 L7.90270313,9.43455441 L6.34060045,9.43446176 L6.0867673,10.1555338 C6.03767411,10.3066412 5.87434319,10.4006779 5.66072377,10.4006779 C5.5479375,10.4006779 5.43523661,10.3741809 5.3350865,10.3239662 C5.19386886,10.2532765 5.05811551,10.0589029 5.2136769,9.53461324 L6.43904297,6.03477794 C6.52536161,5.76860294 6.78756194,5.49436765 7.12122489,5.48612206 C7.45582701,5.494275 7.71802734,5.76860294 7.80451674,6.03533382 L9.02937054,9.53359412 C9.18527344,10.0590882 9.04952009,10.2535544 8.90830246,10.3240588 C8.80798158,10.3741809 8.69545145,10.4006779 8.58266518,10.4006779 C8.5825798,10.4006779 8.58266518,10.4006779 8.58266518,10.4006779 L8.58266518,10.4006779 Z M7.63333092,8.44990147 L7.12165179,6.87258529 L6.60997266,8.44990147 L7.63333092,8.44990147 L7.63333092,8.44990147 L7.63333092,8.44990147 Z" id="Shape" fill="#FFE812" sketch:type="MSShapeGroup"></path>
                <path d="M9.85379464,10.3268382 C9.58305636,10.3268382 9.36286272,10.0981853 9.36286272,9.81727941 L9.36286272,6.04191176 C9.36286272,5.73534265 9.59748549,5.48602941 9.88581194,5.48602941 C10.1741384,5.48602941 10.4087612,5.73534265 10.4087612,6.04191176 L10.4087612,9.30772059 L11.4973493,9.30772059 C11.7680876,9.30772059 11.9882812,9.53637353 11.9882812,9.81727941 C11.9882812,10.0981853 11.7680876,10.3268382 11.4973493,10.3268382 L9.85379464,10.3268382 L9.85379464,10.3268382 Z" id="Shape" fill="#FFE812" sketch:type="MSShapeGroup"></path>
                <path d="M12.6998337,10.4006779 C12.4173131,10.4006779 12.1875569,10.1513647 12.1875569,9.84479559 L12.1875569,6.04191176 C12.1875569,5.73534265 12.4173131,5.48602941 12.6998337,5.48602941 C12.9823544,5.48602941 13.2121105,5.73534265 13.2121105,6.04191176 L13.2121105,7.23668824 L14.6413627,5.68577647 C14.7148744,5.60600735 14.8158783,5.56209265 14.9255056,5.56209265 C15.053404,5.56209265 15.1818147,5.62194265 15.2780374,5.72626324 C15.3677712,5.82354265 15.4213041,5.94870882 15.4286468,6.07869265 C15.4360748,6.20978824 15.395861,6.32995147 15.3156044,6.41713235 L14.1482109,7.68371029 L15.4091802,9.49644265 C15.4916568,9.61493824 15.526577,9.76113529 15.5075374,9.90825882 C15.4885831,10.0553824 15.4179743,10.1854588 15.308774,10.2748632 C15.2191256,10.3483324 15.1126574,10.3870588 15.0006395,10.3870588 C14.8382478,10.3870588 14.6891752,10.3066412 14.5914157,10.1660956 L13.3900413,8.43878382 L13.2122812,8.631675 L13.2122812,9.84451765 C13.2121105,10.1512721 12.9823544,10.4006779 12.6998337,10.4006779 L12.6998337,10.4006779 Z" id="Shape" fill="#FFE812" sketch:type="MSShapeGroup"></path>
            </g>
        </g>
    </g>
</svg>