<svg xmlns="http://www.w3.org/2000/svg" viewBox="0 0 26 26">
  <g fill="none" fill-rule="evenodd">
    <g fill="#FBDE24" transform="translate(1 1)">
      <ellipse cx="12" cy="12" rx="12" ry="12"/>
      <path d="M7.16 13.72c0 .4.595.393.595 0V11.45h.747c.4 0 .4-.575 0-.575h-2.13c-.39 0-.39.575.002.575h.787v2.273zm2.409.127l.192-.396h1.66l.198.397c.163.35.707.072.523-.28l-1.27-2.524c-.112-.247-.436-.238-.557 0l-1.292 2.525c-.09.19 0 .35.144.432.162.03.329 0 .4-.153zm.47-.99l.555-1.11.508 1.11H10.04zm2.512.87c0 .16.126.273.284.273h1.49c.45 0 .44-.59 0-.59H13.1v-2.254c0-.15-.12-.274-.264-.274-.158 0-.284.126-.284.274v2.57zm4.595.17c.18.287.756.018.486-.356L16.58 12.27c.288-.316.598-.595.864-.91.126-.12.126-.28 0-.4-.113-.113-.27-.15-.428 0l-1.3 1.34v-1.142c0-.396-.595-.383-.595 0l.002 2.57c0 .377.594.373.594 0v-.63l.427-.473 1.003 1.274z"/>
    </g>
    <path fill="#37201F" d="M4.12 11.756c0 2.712 1.663 5.093 4.163 6.437-.136.51-.874 3.274-.904 3.49 0 0-.018.165.08.227.096.062.21.014.21.014.28-.042 3.24-2.3 3.753-2.69.512.078 1.04.12 1.577.12 4.904 0 8.88-3.402 8.88-7.598S17.903 4.16 13 4.16c-4.904 0-8.88 3.4-8.88 7.596z"/>
    <path fill="#FFE812" d="M8.09 14.408c-.282 0-.512-.238-.512-.53v-3.303h-.8c-.276 0-.502-.245-.502-.545 0-.3.226-.544.503-.544H9.4c.278 0 .503.244.503.544 0 .3-.226.545-.503.545h-.8v3.302c0 .293-.23.53-.51.53zM12.583 14.4c-.214 0-.377-.093-.427-.245l-.253-.72H10.34l-.253.72c-.05.152-.213.246-.426.246-.112 0-.225-.026-.325-.076-.14-.07-.277-.265-.12-.79l1.224-3.5c.085-.265.348-.54.68-.548.336.008.598.283.685.55l1.224 3.498c.155.525.02.72-.122.79-.1.05-.213.077-.325.077zm-.95-1.95l-.51-1.577-.513 1.577h1.023zM13.854 14.327c-.27 0-.49-.23-.49-.51v-3.775c0-.307.233-.556.522-.556.288 0 .523.25.523.556v3.266h1.087c.27 0 .49.228.49.51 0 .28-.22.51-.49.51h-1.643zM16.7 14.4c-.283 0-.512-.25-.512-.555v-3.803c0-.307.23-.556.512-.556.282 0 .512.25.512.556v1.195l1.43-1.55c.073-.08.174-.125.284-.125.127 0 .256.06.352.164.09.098.143.223.15.353.008.13-.032.25-.112.337l-1.168 1.267 1.26 1.812c.084.12.12.265.1.412-.02.147-.09.277-.2.367-.09.073-.195.112-.307.112-.162 0-.31-.08-.41-.22l-1.2-1.728-.178.192v1.213c0 .306-.23.556-.512.556z"/>
  </g>
</svg>
