<svg xmlns="http://www.w3.org/2000/svg" viewBox="0 0 26 26">
  <g fill="none" fill-rule="evenodd">
    <ellipse cx="13" cy="13" fill="#E4392B" rx="12" ry="12"/>
    <path fill="#FFF" stroke="#E4392B" stroke-width=".2" d="M6.798 15.503l1.453-.92c.617.215 1.29.334 2 .334 2.898 0 5.247-1.996 5.247-4.46 0-2.46-2.35-4.457-5.248-4.457C7.35 6 5 7.996 5 10.458c0 1.446.81 2.73 2.065 3.545l-.503 1.273c-.038.03-.062.076-.062.127 0 .09.074.162.166.162.054 0 .1-.024.132-.062z"/>
    <path fill="#FFF" stroke="#E4392B" stroke-width=".2" d="M20.297 18.97l.04-.065-.578-1.155c1.066-.814 1.737-1.993 1.737-3.305 0-2.455-2.35-4.445-5.248-4.445-2.9 0-5.25 1.99-5.25 4.445s2.35 4.445 5.25 4.445c.838 0 1.63-.167 2.334-.463l1.39.756c.035.05.095.085.163.085.107 0 .194-.085.194-.19 0-.04-.012-.076-.033-.107z"/>
  </g>
</svg>
