<?xml version="1.0" encoding="UTF-8" standalone="no"?>
<svg width="26px" height="26px" viewBox="0 0 26 26" version="1.1" xmlns="http://www.w3.org/2000/svg" xmlns:xlink="http://www.w3.org/1999/xlink" xmlns:sketch="http://www.bohemiancoding.com/sketch/ns">
    <!-- Generator: Sketch 3.4.4 (17249) - http://www.bohemiancoding.com/sketch -->
    <title>Open Chat - Red</title>
    <desc>Created with Sketch.</desc>
    <defs></defs>
    <g id="Page-1" stroke="none" stroke-width="1" fill="none" fill-rule="evenodd" sketch:type="MSPage">
        <g id="keyreply-launcher-svg" sketch:type="MSArtboardGroup">
            <ellipse id="Background" fill="#E4392B" sketch:type="MSShapeGroup" cx="13" cy="13" rx="12" ry="12"></ellipse>
            <path d="M6.79786387,15.5026016 L8.2510924,14.5825096 C8.86685988,14.7979458 9.54146183,14.9167745 10.2487377,14.9167745 C13.1475356,14.9167745 15.4974755,12.9206866 15.4974755,10.4583873 C15.4974755,7.99608797 13.1475356,6 10.2487377,6 C7.34993993,6 5,7.99608797 5,10.4583873 C5,11.903827 5.80979498,13.1886093 7.06504149,14.003253 L6.56230566,15.2764379 C6.52410831,15.3061459 6.49963935,15.3518647 6.49963935,15.4031441 C6.49963935,15.4926822 6.57424062,15.5652672 6.66626595,15.5652672 C6.71976575,15.5652672 6.76737659,15.540735 6.79786387,15.5026016 Z" id="Oval-22" stroke="#E4392B" stroke-width="0.2" fill="#FFFFFF" sketch:type="MSShapeGroup"></path>
            <path d="M20.2966076,18.9713229 L20.3358354,18.9053621 L19.7587766,17.7496801 C20.8262623,16.9360612 21.4974755,15.7568493 21.4974755,14.444877 C21.4974755,11.9900392 19.1475356,10 16.2487377,10 C13.3499399,10 11,11.9900392 11,14.444877 C11,16.8997148 13.3499399,18.889754 16.2487377,18.889754 C17.0875644,18.889754 17.8804324,18.7231175 18.5837003,18.4268017 L19.9742069,19.1827721 C20.0089642,19.2341377 20.0687586,19.2680414 20.1366916,19.2680414 C20.2440545,19.2680414 20.3310893,19.1833589 20.3310893,19.0788977 C20.3310893,19.038933 20.3183503,19.0018633 20.2966076,18.9713229 Z" id="Oval-21" stroke="#E4392B" stroke-width="0.2" fill="#FFFFFF" sketch:type="MSShapeGroup"></path>
        </g>
    </g>
</svg>