<svg xmlns="http://www.w3.org/2000/svg" viewBox="0 0 26 26">
  <g fill="none" fill-rule="evenodd">
    <circle cx="13" cy="13" r="12" fill="#3ACE01"/>
    <path fill="#FFF" d="M12.776 5c4.847 0 8.777 3.146 8.777 7.028 0 1.355-.48 2.62-1.31 3.695-.042.06-.095.128-.163.203l-.005.006c-.284.34-.603.658-.955.952-2.427 2.243-6.42 4.914-6.95 4.502-.457-.358.756-2.11-.643-2.402-.098-.01-.196-.023-.292-.037h-.002C7.123 18.363 4 15.487 4 12.027 4 8.148 7.93 5 12.776 5z"/>
    <path fill="#3ACE01" d="M7.458 14.31h1.77c.252 0 .457-.206.457-.457v-.04c0-.25-.205-.456-.457-.456H7.954v-2.9c0-.25-.206-.457-.458-.457h-.038c-.252 0-.458.206-.458.458v3.394c0 .252.206.458.458.458zm10.968-2.128v-.038c0-.252-.206-.457-.458-.457h-1.274v-.725h1.274c.252 0 .458-.206.458-.458v-.038c0-.252-.206-.458-.458-.458h-1.77c-.252 0-.458.206-.458.458v3.395c0 .252.206.458.458.458h1.77c.252 0 .458-.206.458-.457v-.038c0-.25-.206-.457-.458-.457h-1.274v-.725h1.274c.252 0 .458-.206.458-.458zm-3.404 1.992c.082-.083.132-.197.132-.32v-3.396c0-.252-.206-.458-.457-.458h-.04c-.25 0-.456.206-.456.458v1.993l-1.654-2.218c-.08-.138-.228-.232-.397-.232h-.04c-.25 0-.457.206-.457.458v3.395c0 .25.206.457.458.457h.04c.25 0 .457-.206.457-.457v-2.03l1.666 2.276c.01.014.02.03.033.044.046.063.11.106.18.132.052.022.11.034.172.034h.038c.078 0 .15-.02.214-.053.046-.022.085-.05.112-.083zm-4.51.136h.04c.25 0 .457-.206.457-.457v-3.395c0-.252-.207-.458-.46-.458h-.037c-.252 0-.458.206-.458.458v3.395c0 .25.206.457.458.457z"/>
  </g>
</svg>
