<svg xmlns="http://www.w3.org/2000/svg" viewBox="0 0 26 26">
  <g fill="none" fill-rule="evenodd" transform="translate(-.002 -.51)">
    <circle cx="13" cy="13.5" r="12.978" fill="#017AD4"/>
    <g fill="#FFF">
      <path d="M17.705 6.395l-3.382-.84-1.313 4.23 1.313-4.23 3.382.84zm2.712.29c0 .775-.596 1.406-1.333 1.406-.736 0-1.333-.63-1.333-1.4 0-.77.6-1.41 1.34-1.41.74 0 1.34.63 1.34 1.41zm.22 8.43c0 2.912-3.428 5.275-7.657 5.275-4.23 0-7.658-2.362-7.658-5.276 0-2.914 3.43-5.276 7.658-5.276 4.23 0 7.658 2.362 7.658 5.276zm-15.215-.82c-.596-.277-1.01-.905-1.01-1.636 0-.99.755-1.79 1.69-1.79.518 0 .983.25 1.294.63l-1.974 2.79zm13.188-2.748c.31-.41.787-.673 1.322-.673.934 0 1.69.8 1.69 1.785 0 .75-.447 1.4-1.078 1.66l-1.934-2.78z"/>
      <path d="M12.98 20.743c-4.407 0-7.992-2.525-7.992-5.63 0-.213.017-.425.05-.634-.592-.39-.96-1.08-.96-1.82 0-1.18.907-2.14 2.023-2.14.5 0 .98.19 1.35.53 1.39-.94 3.25-1.53 5.31-1.57l1.35-4.35.3.07h.008l3.147.78c.255-.628.846-1.07 1.534-1.07.92 0 1.667.79 1.667 1.76s-.744 1.76-1.664 1.76-1.664-.79-1.665-1.758l-2.87-.715-1.1 3.527c1.98.08 3.77.673 5.107 1.592.37-.364.858-.567 1.373-.567 1.116 0 2.025.96 2.025 2.136 0 .786-.395 1.488-1.03 1.86.03.197.046.395.046.595 0 3.107-3.58 5.63-7.99 5.63zm-7.257-6.296c-.044.218-.067.44-.067.667 0 2.715 3.285 4.924 7.324 4.924 4.038 0 7.324-2.21 7.324-4.924 0-.216-.02-.428-.06-.637-.005-.008-.01-.017-.012-.026-.015-.04-.023-.08-.023-.12-.23-.92-.84-1.77-1.72-2.44-.04-.01-.07-.03-.1-.053-.02-.016-.037-.033-.05-.052-1.34-.97-3.25-1.58-5.37-1.58-2.1 0-4 .6-5.337 1.554-.01.012-.023.025-.037.037-.03.028-.064.048-.1.06-.9.68-1.524 1.527-1.756 2.46 0 .046-.01.093-.03.137l-.003.01zm13.396-2.934c.77.655 1.34 1.434 1.63 2.288.33-.26.53-.68.53-1.14 0-.79-.61-1.43-1.36-1.43-.3 0-.58.1-.817.29zM6.1 11.227c-.747 0-1.355.643-1.355 1.432 0 .42.18.82.48 1.09.3-.85.874-1.62 1.652-2.27-.226-.17-.495-.26-.776-.26zM19.085 5.63c-.55 0-1 .472-1 1.054 0 .58.45 1.054 1 1.054s1-.473 1-1.054c0-.582-.45-1.055-1-1.055z"/>
    </g>
    <path fill="#017AD4" d="M13.016 18.736c-1.338 0-2.28-.31-2.882-.944-.13-.138-.13-.36 0-.498s.343-.138.473 0c.47.495 1.257.736 2.41.736 1.15 0 1.94-.24 2.41-.736.13-.138.34-.138.472 0 .13.137.13.36-.01.498-.6.635-1.55.944-2.88.944zm2.71-5.968c-.68 0-1.253.602-1.253 1.32 0 .72.572 1.302 1.252 1.302s1.233-.583 1.233-1.3c0-.72-.552-1.322-1.233-1.322zm-5.4 0c-.68 0-1.25.603-1.25 1.32 0 .72.57 1.302 1.25 1.302s1.233-.583 1.233-1.3c0-.72-.56-1.322-1.24-1.322z"/>
  </g>
</svg>
