<svg xmlns="http://www.w3.org/2000/svg" viewBox="0 0 26 26">
  <g fill="none" fill-rule="evenodd">
    <circle cx="13" cy="13" r="12" fill="#00AFF0"/>
    <path fill="#FFF" d="M13.468 20.06c-3.52 0-7.52-4.24-7.2-7.76.32-3.36 4.8-6.48 8.12-6 2.92.4 5.52 4.08 5.36 7-.16 3.08-3.2 6.76-6.28 6.76z"/>
    <path fill="#00AFF0" d="M15.72 21.76c-.24-.08-.6-.16-.8-.24-.24-.12-.52-.12-1.4-.08-.84.04-1.28 0-1.88-.08-3.2-.56-5.76-2.88-6.68-6.08-.16-.6-.2-.92-.2-2.36 0-1.56-.04-1.68-.24-2.32-1.16-3.16 1.2-6.48 4.56-6.48.68 0 1.52.2 2 .44.32.16.52.2 1.76.2 1.12 0 1.56.04 2.12.2 2.52.64 4.56 2.28 5.64 4.56.68 1.4.92 2.84.76 4.48-.08.88-.08.96.12 1.48.64 1.88.04 4.04-1.52 5.32-.48.4-1.44.84-2.04 1-.6.12-1.56.12-2.16-.04h-.04zm-1.08-3.08c1.32-.28 2.48-1.08 2.92-2.04.56-1.16.4-2.52-.36-3.36-.64-.72-1.6-1.12-3.88-1.68-1.52-.36-1.88-.52-2.2-.88-.28-.32-.32-.56-.08-.92.24-.4.84-.64 1.64-.68 1.16-.08 1.68.2 2.36 1.28.52.8 1.04 1 1.72.68.88-.44.8-1.88-.16-2.72-.92-.76-1.92-1.08-3.6-1.08-1.76 0-2.96.36-3.76 1.16-.64.64-.76 1-.76 2 0 1.04.12 1.36.8 1.96.72.68 1.32.92 3.48 1.44 1.52.36 1.92.56 2.28.96.16.2.24.36.24.72 0 .4-.04.48-.36.8-.48.48-1.2.68-2.12.64-1.08-.08-1.56-.4-2.12-1.52-.4-.76-.72-1.04-1.24-1.04-1.16 0-1.56.96-.96 2.2.52 1.08 1.56 1.8 2.88 2.08.8.16 2.56.16 3.32 0h-.04z"/>
  </g>
</svg>
