<?xml version="1.0" encoding="UTF-8" standalone="no"?>
<svg width="26px" height="26px" viewBox="0 0 26 26" version="1.1" xmlns="http://www.w3.org/2000/svg" xmlns:xlink="http://www.w3.org/1999/xlink" xmlns:sketch="http://www.bohemiancoding.com/sketch/ns">
    <!-- Generator: Sketch 3.4.4 (17249) - http://www.bohemiancoding.com/sketch -->
    <title>Skype</title>
    <desc>Created with Sketch.</desc>
    <defs></defs>
    <g id="Page-1" stroke="none" stroke-width="1" fill="none" fill-rule="evenodd" sketch:type="MSPage">
        <g id="Skype" sketch:type="MSArtboardGroup">
            <circle id="Oval-60" fill="#00AFF0" sketch:type="MSShapeGroup" cx="13" cy="13" r="12"></circle>
            <g id="skype-3" sketch:type="MSLayerGroup" transform="translate(4.000000, 4.000000)">
                <g id="Layer_1" sketch:type="MSShapeGroup">
                    <path d="M9.46801688,16.0592951 C5.94789188,16.0592951 1.94814188,11.8191701 2.26801688,8.29904513 C2.58789188,4.93904513 7.06801688,1.81904513 10.3878919,2.29904513 C13.3080169,2.69879513 15.9082669,6.37904513 15.7477669,9.29917013 C15.5883919,12.3786701 12.5478919,16.0592951 9.46801688,16.0592951 L9.46801688,16.0592951 Z" id="Shape" fill="#FFFFFF"></path>
                    <path d="M11.72025,17.759625 C11.479875,17.67975 11.119875,17.599875 10.92,17.519625 C10.68,17.4 10.399875,17.4 9.520125,17.43975 C8.680125,17.4795 8.239875,17.43975 7.64025,17.3595 C4.44,16.8 1.879875,14.479875 0.96,11.28 C0.799875,10.68 0.760125,10.360125 0.760125,8.920125 C0.760125,7.35975 0.72,7.240125 0.520125,6.6 C-0.63975,3.439875 1.720125,0.12 5.080125,0.12 C5.76,0.12 6.6,0.32025 7.08,0.559875 C7.40025,0.72 7.600125,0.75975 8.839875,0.75975 C9.96,0.75975 10.399875,0.799875 10.95975,0.96 C13.480125,1.600125 15.51975,3.24 16.59975,5.52 C17.279625,6.919875 17.52,8.36025 17.3595,9.99975 C17.279625,10.88025 17.279625,10.960125 17.4795,11.479875 C18.119625,13.360125 17.519625,15.51975 15.959625,16.8 C15.47925,17.200125 14.519625,17.64 13.919625,17.800125 C13.31925,17.920125 12.359625,17.920125 11.75925,17.76 L11.72025,17.76 L11.72025,17.759625 Z M10.639875,14.67975 C11.96025,14.4 13.11975,13.59975 13.56,12.640125 C14.119875,11.479875 13.95975,10.11975 13.2,9.27975 C12.559875,8.55975 11.599875,8.16 9.319875,7.600125 C7.799625,7.240125 7.439625,7.08 7.11975,6.72 C6.839625,6.39975 6.7995,6.160125 7.039875,5.800125 C7.279875,5.4 7.879875,5.16 8.67975,5.12025 C9.84,5.040375 10.35975,5.320125 11.039625,6.400125 C11.55975,7.200375 12.0795,7.40025 12.760125,7.08 C13.639875,6.640125 13.56,5.200125 12.599625,4.360125 C11.67975,3.600375 10.68,3.280125 8.999625,3.280125 C7.23975,3.280125 6.039375,3.640125 5.2395,4.44 C4.599375,5.080125 4.47975,5.440125 4.47975,6.439875 C4.47975,7.47975 4.59975,7.799625 5.279625,8.4 C5.999625,9.079875 6.599625,9.32025 8.75925,9.84 C10.2795,10.2 10.679625,10.399875 11.03925,10.8 C11.19975,11.00025 11.279625,11.16 11.279625,11.52 C11.279625,11.920125 11.2395,12 10.919625,12.32025 C10.439625,12.799875 9.719625,12.99975 8.79975,12.960375 C7.71975,12.880125 7.23975,12.56025 6.679875,11.440125 C6.27975,10.680375 5.959875,10.40025 5.43975,10.40025 C4.2795,10.40025 3.87975,11.36025 4.47975,12.6 C4.999875,13.680375 6.03975,14.400375 7.35975,14.680125 C8.159625,14.84025 9.919875,14.84025 10.68,14.680125 L10.639875,14.680125 L10.639875,14.67975 Z" id="Shape" fill="#00AFF0"></path>
                </g>
            </g>
        </g>
    </g>
</svg>