<?xml version="1.0" encoding="UTF-8" standalone="no"?>
<svg width="26px" height="26px" viewBox="0 0 26 26" version="1.1" xmlns="http://www.w3.org/2000/svg" xmlns:xlink="http://www.w3.org/1999/xlink" xmlns:sketch="http://www.bohemiancoding.com/sketch/ns">
    <!-- Generator: Sketch 3.4.4 (17249) - http://www.bohemiancoding.com/sketch -->
    <title>Slack</title>
    <desc>Created with Sketch.</desc>
    <defs></defs>
    <g id="Page-1" stroke="none" stroke-width="1" fill="none" fill-rule="evenodd" sketch:type="MSPage">
        <g id="Slack" sketch:type="MSArtboardGroup">
            <circle id="Oval-60" fill="#423843" sketch:type="MSShapeGroup" cx="13" cy="13" r="12"></circle>
            <g id="slack-1" sketch:type="MSLayerGroup" transform="translate(5.500000, 5.500000)">
                <g id="Group" sketch:type="MSShapeGroup">
                    <path d="M9.72442623,0.928032785 C9.49647539,0.226352459 8.74290984,-0.157622951 8.04135246,0.0704508199 C7.33967215,0.298401639 6.9556967,1.05196721 7.18377047,1.75352459 L10.6377049,12.3804098 C10.8748771,13.0358607 11.5829508,13.4042213 12.2626229,13.2086065 C12.9715574,13.0045082 13.4037295,12.2515574 13.1775,11.5552869 C13.1688935,11.5287295 9.72442623,0.928032785 9.72442623,0.928032785" id="Shape" fill="#DFA22F"></path>
                    <path d="M4.37262295,2.66692623 C4.14454918,1.96536885 3.39098361,1.58139345 2.68942623,1.80934426 C1.9877459,2.03729508 1.60377049,2.79086065 1.83184426,3.49254098 L5.28577869,14.1194262 C5.52295082,14.7748771 6.23102461,15.1432377 6.9106967,14.9475 C7.61963115,14.7435246 8.0518033,13.9905738 7.82557377,13.2941803 C7.81696723,13.2677459 4.37262295,2.66692623 4.37262295,2.66692623" id="Shape" fill="#3CB187"></path>
                    <path d="M14.0719672,9.72922131 C14.7736475,9.50127047 15.1575,8.74770492 14.9295492,8.04602461 C14.7015984,7.34446723 13.9480328,6.96049178 13.2464754,7.18844262 L2.61959016,10.6425 C1.96413935,10.8795492 1.59577869,11.5876229 1.79139345,12.2672951 C1.9954918,12.9762295 2.74844262,13.4084016 3.44471312,13.1821721 C3.47127049,13.1735655 14.0719672,9.72922131 14.0719672,9.72922131" id="Shape" fill="#CE1E5B"></path>
                    <path d="M4.83442623,12.7306967 C5.52614754,12.5059426 6.41766393,12.2162705 7.37434424,11.9054508 C7.14959016,11.2137295 6.85991801,10.3220902 6.54897539,9.36528691 L4.00893442,10.1909016 L4.83442623,12.7306967" id="Shape" fill="#392538"></path>
                    <path d="M10.1863525,10.9916803 C11.1465984,10.6797541 12.0390984,10.3897131 12.7262705,10.1664345 C12.5015164,9.47471309 12.2117213,8.58282785 11.9007787,7.62577869 L9.3607377,8.45139346 L10.1863525,10.9916803" id="Shape" fill="#BB242A"></path>
                    <path d="M12.3330738,4.37729508 C13.0346312,4.14934426 13.4186065,3.39577869 13.1906558,2.69409836 C12.9627049,1.99254098 12.2091393,1.60856558 11.507459,1.83651639 L0.88057377,5.29057377 C0.225122951,5.52762295 -0.143237705,6.2356967 0.0525,6.91536885 C0.25647541,7.6243033 1.00942623,8.05647539 1.70581967,7.83024592 C1.7322541,7.82163932 12.3330738,4.37729508 12.3330738,4.37729508" id="Shape" fill="#72C5CD"></path>
                    <path d="M3.09504098,7.37889346 C3.78676229,7.15413932 4.67852459,6.86434424 5.63532787,6.55352461 C5.32340164,5.59315574 5.03336065,4.70065574 4.81008197,4.01336065 L2.26942623,4.83909836 L3.09504098,7.37889346" id="Shape" fill="#248C73"></path>
                    <path d="M8.44684424,5.64 C9.40733607,5.32795082 10.299959,5.03790984 10.9872541,4.8145082 C10.6752049,3.85401639 10.3851639,2.96127049 10.1617623,2.27385246 L7.62122953,3.09959016 L8.44684424,5.64" id="Shape" fill="#62803A"></path>
                </g>
            </g>
        </g>
    </g>
</svg>