<svg xmlns="http://www.w3.org/2000/svg" viewBox="0 0 26 26">
  <g fill="none" fill-rule="evenodd">
    <circle cx="13" cy="13" r="12" fill="#423843"/>
    <path fill="#DFA22F" d="M15.224 6.428c-.228-.702-.98-1.086-1.683-.858-.7.228-1.084.982-.856 1.684l3.454 10.626c.237.656.945 1.024 1.625.83.71-.205 1.14-.958.914-1.655L15.225 6.428"/>
    <path fill="#3CB187" d="M9.873 8.167C9.645 7.465 8.89 7.08 8.19 7.31c-.702.227-1.086.98-.858 1.683l3.454 10.626c.237.655.945 1.023 1.625.827.71-.203 1.142-.956.916-1.653-.01-.026-3.453-10.627-3.453-10.627"/>
    <path fill="#CE1E5B" d="M19.572 15.23c.702-.23 1.086-.982.858-1.684-.228-.702-.982-1.086-1.684-.858L8.12 16.142c-.656.238-1.024.946-.83 1.625.205.71.958 1.14 1.655.915l10.627-3.453"/>
    <path fill="#392538" d="M10.334 18.23l2.54-.825-.825-2.54-2.54.826.824 2.54"/>
    <path fill="#BB242A" d="M15.686 16.492l2.54-.826-.825-2.54-2.54.825.826 2.542"/>
    <path fill="#72C5CD" d="M17.833 9.877c.702-.228 1.086-.98.858-1.683-.227-.7-.98-1.085-1.683-.857L6.38 10.79c-.655.238-1.023.946-.827 1.625.203.71.956 1.14 1.653.915l10.627-3.453"/>
    <path fill="#248C73" d="M8.595 12.88l2.54-.826-.825-2.54-2.54.825.825 2.54"/>
    <path fill="#62803A" d="M13.947 11.14l2.54-.825-.825-2.54-2.54.825.825 2.54"/>
  </g>
</svg>
