<svg viewBox="0 0 26 26" xmlns="http://www.w3.org/2000/svg"><title>Snapchat</title><g fill="none" fill-rule="evenodd"><circle fill="#FFFC00" cx="13" cy="13" r="12"/><path d="M12.912 20.683c-.044 0-.086-.002-.118-.004-.026.002-.052.003-.08.003-.93 0-1.55-.47-2.1-.886-.394-.297-.765-.577-1.2-.655-.213-.038-.426-.057-.63-.057-.37 0-.663.062-.876.106-.132.028-.245.052-.332.052-.092 0-.203-.022-.25-.19-.037-.135-.063-.264-.088-.39-.064-.31-.11-.5-.22-.518-1.167-.193-1.856-.476-1.993-.82-.015-.036-.023-.072-.025-.108-.005-.103.063-.192.157-.21.927-.162 1.75-.686 2.45-1.556.54-.673.806-1.317.835-1.388 0-.003.003-.007.004-.01.135-.292.162-.544.08-.75-.15-.38-.648-.548-.978-.66-.082-.027-.16-.053-.22-.08-.293-.123-.774-.383-.71-.743.047-.263.372-.446.634-.446.073 0 .137.014.19.04.298.15.564.225.794.225.285 0 .423-.117.456-.15-.008-.163-.018-.335-.028-.497v-.003c-.067-1.138-.15-2.554.188-3.366 1.015-2.432 3.166-2.62 3.8-2.62L12.93 5h.038c.637 0 2.792.19 3.808 2.622.34.813.255 2.23.188 3.37l-.003.054c-.01.155-.017.302-.024.443.03.03.157.137.414.148.218-.01.47-.084.746-.223.086-.043.18-.052.245-.052.098 0 .197.02.28.057l.003.002c.235.09.39.267.392.454.003.175-.118.435-.714.687-.06.026-.138.052-.22.08-.33.112-.828.28-.978.66-.082.205-.055.457.08.75l.004.01c.04.103 1.045 2.55 3.285 2.944.095.017.163.106.158.21-.002.035-.01.072-.025.108-.137.34-.826.625-1.993.817-.11.018-.156.208-.22.517-.025.127-.052.253-.088.385-.034.124-.11.184-.23.184h-.02c-.08 0-.19-.016-.332-.046-.246-.05-.523-.1-.875-.1-.205 0-.418.02-.63.058-.436.078-.807.358-1.2.655-.55.415-1.172.886-2.103.886" fill="#FFF"/><path d="M13.155 5.4c.6 0 2.664.173 3.637 2.504.32.768.238 2.158.172 3.275-.01.177-.02.348-.028.513l-.004.07.044.053c.018.02.184.207.555.222H17.544c.245-.01.52-.09.82-.24.044-.023.103-.034.165-.034.07 0 .146.014.208.042l.01.004c.157.06.268.17.27.27 0 .057-.04.262-.596.497-.055.023-.126.047-.21.075-.362.123-.91.308-1.093.772-.104.262-.075.57.084.917.067.165 1.1 2.655 3.428 3.065 0 .012-.003.025-.01.04-.04.1-.29.442-1.85.7-.244.04-.303.332-.373.672-.025.122-.05.244-.085.37-.01.04-.013.042-.05.042h-.02c-.07 0-.174-.016-.296-.042-.22-.046-.524-.103-.91-.103-.217 0-.44.02-.663.06-.477.085-.865.38-1.276.69-.552.416-1.123.848-1.994.848-.038 0-.075-.002-.112-.004h-.02c-.02.002-.043.003-.065.003-.87 0-1.44-.432-1.993-.85-.41-.31-.8-.603-1.277-.688-.223-.04-.446-.06-.662-.06-.386 0-.69.064-.91.11-.122.025-.227.047-.296.047-.057 0-.058-.003-.07-.047-.035-.127-.06-.253-.085-.374-.07-.34-.13-.634-.375-.674-1.56-.257-1.81-.6-1.85-.7-.006-.016-.01-.03-.01-.04 2.327-.41 3.36-2.9 3.427-3.065.16-.345.19-.654.085-.916-.185-.463-.732-.65-1.094-.772-.083-.028-.155-.052-.21-.075-.47-.2-.614-.4-.593-.52.025-.14.252-.282.45-.282.044 0 .083.008.112.022.32.16.615.243.872.243.404 0 .584-.202.604-.225l.044-.052-.004-.07c-.008-.164-.018-.336-.03-.513-.065-1.117-.147-2.507.174-3.274.97-2.323 3.023-2.502 3.63-2.502l.278-.003h.035m0-.4h-.04c-.098 0-.26.003-.275.003-.355 0-1.066.054-1.83.414-.436.206-.828.484-1.166.827-.403.41-.73.913-.975 1.498-.36.857-.274 2.3-.206 3.462l.022.382c-.052.026-.137.053-.263.053-.2 0-.44-.07-.712-.206-.08-.04-.17-.06-.27-.06-.162 0-.332.05-.48.144-.186.116-.306.28-.338.464-.022.12-.02.36.227.602.136.133.337.256.595.365.068.028.15.055.234.084.296.1.744.253.86.547.06.15.035.347-.074.584l-.01.02c-.026.068-.28.685-.804 1.336-.297.37-.625.68-.973.92-.425.293-.885.485-1.366.57-.19.033-.324.213-.313.418.004.06.017.117.04.174.076.192.253.355.54.498.354.175.88.322 1.566.437.035.07.07.247.096.37.026.128.053.26.092.4.042.153.15.336.43.336.105 0 .226-.026.367-.055.207-.043.49-.102.84-.102.196 0 .398.018.6.054.393.07.73.325 1.122.62.573.434 1.22.923 2.21.923.028 0 .055 0 .082-.003.033.002.073.003.116.003.99 0 1.638-.49 2.21-.922.392-.295.73-.55 1.122-.62.203-.036.405-.054.6-.054.336 0 .602.046.84.095.155.034.275.05.368.05H18.258c.204 0 .354-.12.41-.33.04-.137.066-.267.093-.398.024-.113.062-.296.096-.367.687-.115 1.213-.262 1.565-.437.29-.142.466-.304.543-.494.023-.058.036-.117.04-.177.01-.204-.125-.384-.314-.418-2.14-.378-3.104-2.727-3.144-2.827l-.01-.02c-.108-.237-.133-.433-.074-.582.117-.293.565-.445.86-.546.087-.03.168-.056.236-.085.29-.124.5-.258.638-.41.164-.18.196-.354.194-.467-.005-.275-.2-.52-.514-.64-.105-.045-.225-.07-.348-.07-.083 0-.207.012-.324.07-.25.126-.474.194-.667.204-.102-.005-.174-.03-.22-.052.006-.107.012-.217.02-.332v-.05c.07-1.16.155-2.605-.203-3.462-.245-.587-.574-1.092-.978-1.502-.34-.343-.734-.62-1.172-.827-.762-.357-1.473-.41-1.83-.41" fill="#020202"/></g></svg>