<svg xmlns="http://www.w3.org/2000/svg" viewBox="0 0 26 26">
  <g fill="none" fill-rule="evenodd" transform="translate(1 1)">
    <ellipse cx="12" cy="12" fill="#2DA5E1" rx="12" ry="12"/>
    <path fill="#FEFEFE" d="M17.602 6.198L15.52 17.45s-.292.78-1.093.406l-4.806-3.95-1.747-.904-2.942-1.06s-.45-.172-.494-.547c-.044-.374.51-.577.51-.577L16.64 5.902s.962-.453.962.296"/>
    <path fill="#D3E5F1" d="M9.25 17.324s-.14-.014-.314-.608c-.175-.593-1.063-3.714-1.063-3.714l7.064-4.806s.408-.265.393 0c0 0 .073.047-.145.265-.22.22-5.55 5.354-5.55 5.354"/>
    <path fill="#B6D0E4" d="M11.464 15.42l-1.902 1.86s-.148.12-.31.044l.363-3.45"/>
  </g>
</svg>
