<?xml version="1.0" encoding="UTF-8" standalone="no"?>
<svg width="26px" height="26px" viewBox="0 0 26 26" version="1.1" xmlns="http://www.w3.org/2000/svg" xmlns:xlink="http://www.w3.org/1999/xlink" xmlns:sketch="http://www.bohemiancoding.com/sketch/ns">
    <!-- Generator: Sketch 3.4.4 (17249) - http://www.bohemiancoding.com/sketch -->
    <title>Telegram</title>
    <desc>Created with Sketch.</desc>
    <defs></defs>
    <g id="Page-1" stroke="none" stroke-width="1" fill="none" fill-rule="evenodd" sketch:type="MSPage">
        <g id="Telegram" sketch:type="MSArtboardGroup">
            <g sketch:type="MSLayerGroup" transform="translate(1.000000, 1.000000)">
                <ellipse id="Background" fill="#2DA5E1" sketch:type="MSShapeGroup" cx="12" cy="12" rx="12" ry="12"></ellipse>
                <g id="Fill-4-+-Fill-6-+-Fill-8" transform="translate(4.000000, 5.000000)" sketch:type="MSShapeGroup">
                    <path d="M13.6024245,1.19842228 L11.5195968,12.4499672 C11.5195968,12.4499672 11.2282797,13.2302575 10.4272122,12.8556788 L5.62072035,8.90745787 L3.87290512,8.00240169 L0.930764045,6.94116573 C0.930764045,6.94116573 0.479259675,6.76958333 0.435564295,6.3950515 C0.391868914,6.02051966 0.945314607,5.81761704 0.945314607,5.81761704 L12.6411261,0.901886704 C12.6411261,0.901886704 13.6024245,0.449358614 13.6024245,1.19842228" id="Fill-4" fill="#FEFEFE"></path>
                    <path d="M5.25127154,12.3236236 C5.25127154,12.3236236 5.11096567,12.3095318 4.93618414,11.7164607 C4.76140262,11.1234831 3.87290075,8.00241573 3.87290075,8.00241573 L10.9370019,3.19590824 C10.9370019,3.19590824 11.3448109,2.93064607 11.3302603,3.19590824 C11.3302603,3.19590824 11.4031005,3.24272472 11.1846236,3.46121723 C10.9661467,3.67970974 5.63531024,8.81383895 5.63531024,8.81383895" id="Fill-6" fill="#D3E5F1"></path>
                    <path d="M7.46365169,10.4213343 L5.56246567,12.278544 C5.56246567,12.278544 5.41385768,12.3993305 5.25126717,12.3236283 L5.61529338,8.87390918" id="Fill-8" fill="#B6D0E4"></path>
                </g>
            </g>
        </g>
    </g>
</svg>