<svg xmlns="http://www.w3.org/2000/svg" viewBox="0 0 26 26">
  <g fill="none" fill-rule="evenodd">
    <circle cx="12.998" cy="12.99" r="12.978" fill="#2DAAE1"/>
    <path fill="#FFF" d="M21.32 7.828c-.613.272-1.27.455-1.962.538.705-.423 1.246-1.092 1.5-1.89-.658.392-1.39.676-2.167.83-.622-.664-1.51-1.078-2.492-1.078-1.884 0-3.413 1.528-3.413 3.414 0 .267.03.528.088.778-2.838-.143-5.353-1.502-7.037-3.567-.294.504-.462 1.09-.462 1.717 0 1.184.602 2.23 1.518 2.84-.56-.016-1.086-.17-1.546-.426v.043c0 1.655 1.176 3.034 2.738 3.348-.287.078-.588.12-.9.12-.22 0-.433-.02-.642-.06.435 1.355 1.695 2.342 3.19 2.37-1.17.916-2.642 1.462-4.24 1.462-.276 0-.55-.016-.816-.05 1.51.97 3.306 1.536 5.234 1.536 6.28 0 9.713-5.202 9.713-9.714 0-.15-.003-.296-.01-.442.67-.484 1.248-1.085 1.706-1.77z"/>
  </g>
</svg>
