<?xml version="1.0" encoding="UTF-8" standalone="no"?>
<svg width="26px" height="26px" viewBox="0 0 26 26" version="1.1" xmlns="http://www.w3.org/2000/svg" xmlns:xlink="http://www.w3.org/1999/xlink" xmlns:sketch="http://www.bohemiancoding.com/sketch/ns">
    <!-- Generator: Sketch 3.4.4 (17249) - http://www.bohemiancoding.com/sketch -->
    <title>Viber</title>
    <desc>Created with Sketch.</desc>
    <defs></defs>
    <g id="Page-1" stroke="none" stroke-width="1" fill="none" fill-rule="evenodd" sketch:type="MSPage">
        <g id="Viber" sketch:type="MSArtboardGroup">
            <circle id="Oval-60" fill="#7B519D" sketch:type="MSShapeGroup" cx="13" cy="13" r="12"></circle>
            <g id="Group" sketch:type="MSLayerGroup" transform="translate(6.000000, 6.000000)" fill="#FFFFFF">
                <path d="M12.4778989,9.79308275 C12.0574534,9.45460331 11.6081169,9.15077295 11.1658405,8.8403833 C10.283741,8.22085577 9.47694823,8.17273762 8.81871588,9.16944941 C8.44909233,9.72904204 7.93165942,9.75352672 7.39064309,9.50802898 C5.89908038,8.8317711 4.74734901,7.78969506 4.0726934,6.27369773 C3.7742707,5.60299772 3.77817623,5.00164594 4.47646532,4.52727402 C4.84613894,4.27641869 5.21861654,3.97954819 5.18882434,3.43137173 C5.14991923,2.71660931 3.41446105,0.327925867 2.72914033,0.0758187706 C2.44553862,-0.0285290324 2.16313862,-0.0217694579 1.87462996,0.0752179195 C0.267603696,0.615633389 -0.39798908,1.93725539 0.239463837,3.50212194 C2.14115748,8.17083492 5.48789796,11.4210387 10.0948234,13.4047985 C10.3574454,13.5177585 10.6492587,13.5629225 10.797018,13.6034299 C11.8458537,13.6139949 13.074544,12.6034635 13.4293967,11.600593 C13.7710306,10.6357764 13.0490079,10.2527839 12.4778989,9.79308275 L12.4778989,9.79308275 Z" id="path17-6" sketch:type="MSShapeGroup"></path>
                <path d="M7.68401555,0.738993892 C11.0519861,1.25692752 12.6052362,2.85839591 13.0341437,6.25060078 C13.0739,6.56394462 12.9571847,7.03541243 13.4042179,7.04412477 C13.8714297,7.05303739 13.7588703,6.58852944 13.7627758,6.27488518 C13.8022817,3.08005989 11.016586,0.118314734 7.7814035,0.00911005137 C7.53730775,0.0442097682 7.03224235,-0.159228391 7.00074774,0.387846511 C6.97976802,0.756718999 7.4049703,0.696083111 7.68401555,0.738993892 L7.68401555,0.738993892 Z" id="path19-1" sketch:type="MSShapeGroup"></path>
                <path d="M7.83602953,1.05652178 C7.51207066,1.01751653 7.08441491,0.864850291 7.00870767,1.31438703 C6.92969576,1.78615527 7.40632087,1.7382374 7.7126047,1.80678449 C9.79275112,2.27169301 10.517027,3.02881543 10.8595121,5.09218809 C10.909533,5.39301419 10.8101422,5.86122739 11.3213663,5.78361746 C11.700253,5.72593575 11.5634092,5.32456724 11.5951041,5.09013518 C11.6118778,3.10917926 9.91437339,1.30607526 7.83602953,1.05652178 L7.83602953,1.05652178 Z" id="path21-2" sketch:type="MSShapeGroup"></path>
                <path d="M8.5385643,3.00034953 C8.32230799,3.00570712 8.11005735,3.02909024 8.03059479,3.26016755 C7.91122571,3.60555678 8.16233139,3.68792344 8.41794345,3.7289816 C9.27125212,3.86597565 9.72033822,4.36913835 9.80555893,5.22004361 C9.82859156,5.45102078 9.97514915,5.63813581 10.1982652,5.61179851 C10.5074031,5.57494631 10.5353426,5.29975652 10.5258792,5.03843637 C10.5411509,4.08243224 9.46062035,2.97746712 8.5385643,3.00034953 L8.5385643,3.00034953 Z" id="path23" sketch:type="MSShapeGroup"></path>
            </g>
        </g>
    </g>
</svg>