<svg xmlns="http://www.w3.org/2000/svg" viewBox="0 0 26 26">
  <g fill="none" fill-rule="evenodd">
    <circle cx="13" cy="13" r="12" fill="#7B519D"/>
    <g fill="#FFF">
      <path d="M18.478 15.793c-.42-.338-.87-.642-1.312-.953-.882-.62-1.69-.667-2.347.33-.37.56-.888.584-1.43.338-1.49-.676-2.643-1.718-3.317-3.234-.3-.67-.295-1.272.403-1.747.37-.25.743-.547.713-1.096-.04-.713-1.776-3.102-2.46-3.354-.284-.105-.567-.098-.855 0-1.607.54-2.273 1.86-1.636 3.426 1.9 4.67 5.248 7.92 9.855 9.903.262.113.554.158.702.198 1.05.01 2.278-1 2.632-2.002.34-.964-.38-1.347-.952-1.807zM13.684 6.74c3.368.517 4.92 2.118 5.35 5.51.04.314-.077.785.37.794.467.01.355-.455.36-.77C19.8 9.08 17.016 6.12 13.78 6.01c-.243.034-.748-.17-.78.378-.02.37.405.308.684.35z"/>
      <path d="M13.836 7.057c-.324-.04-.752-.192-.827.257-.08.472.396.424.703.493 2.08.465 2.804 1.222 3.147 3.285.05.3-.05.77.46.692.38-.058.243-.46.275-.694.017-1.98-1.68-3.784-3.76-4.033z"/>
      <path d="M14.54 9c-.218.006-.43.03-.51.26-.12.346.132.428.388.47.853.136 1.302.64 1.388 1.49.023.23.17.418.392.392.31-.037.337-.312.328-.574.015-.956-1.065-2.06-1.987-2.038z"/>
    </g>
  </g>
</svg>
