<svg xmlns="http://www.w3.org/2000/svg" viewBox="0 0 26 26">
  <g fill="none" fill-rule="evenodd" transform="translate(1 1)">
    <ellipse cx="12" cy="12" fill="#1ECE29" rx="12" ry="12"/>
    <path fill="#FFF" d="M18.637 17.746l.034-.057-.494-.992c.915-.697 1.49-1.708 1.49-2.833 0-2.105-2.014-3.81-4.5-3.81-2.485 0-4.5 1.705-4.5 3.81s2.015 3.81 4.5 3.81c.72 0 1.4-.142 2.003-.396l1.19.647c.03.044.082.073.14.073.092 0 .167-.073.167-.162 0-.034-.01-.066-.03-.092z"/>
    <ellipse cx="13.667" cy="12.486" fill="#1ECE29" rx=".667" ry=".649"/>
    <ellipse cx="16.833" cy="12.486" fill="#1ECE29" rx=".667" ry=".649"/>
    <path fill="#FFF" d="M10.49 14.914c-.08.003-.16.005-.24.005-.707 0-1.382-.12-1.998-.335l-1.454.92c-.03.038-.078.063-.13.063-.093 0-.168-.073-.168-.163 0-.05.024-.097.063-.126l.503-1.275C5.81 13.19 5 11.905 5 10.46 5 7.996 7.35 6 10.25 6c2.61 0 4.774 1.617 5.18 3.736-.086-.004-.175-.006-.263-.006-2.67 0-4.834 1.85-4.834 4.135 0 .362.055.714.157 1.05z"/>
    <ellipse cx="8.333" cy="9.081" fill="#1ECE29" rx=".667" ry=".649"/>
    <ellipse cx="12.333" cy="9.081" fill="#1ECE29" rx=".667" ry=".649"/>
  </g>
</svg>
