<?xml version="1.0" encoding="UTF-8" standalone="no"?>
<svg width="26px" height="26px" viewBox="0 0 26 26" version="1.1" xmlns="http://www.w3.org/2000/svg" xmlns:xlink="http://www.w3.org/1999/xlink" xmlns:sketch="http://www.bohemiancoding.com/sketch/ns">
    <!-- Generator: Sketch 3.4.4 (17249) - http://www.bohemiancoding.com/sketch -->
    <title>Whatsapp</title>
    <desc>Created with Sketch.</desc>
    <defs></defs>
    <g id="Page-1" stroke="none" stroke-width="1" fill="none" fill-rule="evenodd" sketch:type="MSPage">
        <g id="Whatsapp" sketch:type="MSArtboardGroup">
            <circle id="Oval-60" fill="#30BE2D" sketch:type="MSShapeGroup" cx="13" cy="13" r="12"></circle>
            <g id="logo" sketch:type="MSLayerGroup" transform="translate(6.000000, 6.000000)" fill="#FFFFFF">
                <path d="M11.8924906,2.04237736 C10.5843962,0.733188679 8.84477358,0.0118301887 6.99130189,0.0110943396 C3.17239623,0.0110943396 0.0642641509,3.11803774 0.0627358491,6.93698113 C0.062245283,8.15771698 0.381283019,9.34932075 0.987584906,10.3996604 L0.00464150943,13.9888868 L3.67756604,13.0257358 C4.68956604,13.5775094 5.82892453,13.8683019 6.98854717,13.8687925 L6.99137736,13.8687925 C6.99160377,13.8687925 6.99115094,13.8687925 6.99139623,13.8687925 C10.8099245,13.8687925 13.9183396,10.7614717 13.9198868,6.94249057 C13.9206226,5.09179245 13.2006226,3.35156604 11.8924906,2.04237736 L11.8924906,2.04237736 Z M6.99139623,12.699 L6.98903774,12.699 C5.95569811,12.6986038 4.94218868,12.4210943 4.05801887,11.896566 L3.84771698,11.7718113 L1.66815094,12.3433774 L2.24992453,10.219 L2.11296226,10.0011887 C1.53650943,9.08460377 1.2320566,8.02516981 1.23250943,6.93743396 C1.23375472,3.76330189 3.81713208,1.18090566 6.99362264,1.18090566 C8.53175472,1.18149057 9.97766038,1.78111321 11.0649245,2.86924528 C12.1521887,3.95737736 12.7506226,5.40381132 12.7500566,6.9420566 C12.7488113,10.1164528 10.1654528,12.699 6.99139623,12.699 L6.99139623,12.699 Z M10.1501698,8.38739623 C9.97701887,8.30077358 9.12590566,7.88207547 8.96720755,7.82432075 C8.8085283,7.76654717 8.69313208,7.73767925 8.57767925,7.91096226 C8.46230189,8.08420755 8.1305283,8.47403774 8.02950943,8.5895283 C7.9285283,8.70503774 7.82754717,8.71949057 7.65443396,8.63284906 C7.48130189,8.54622642 6.92349057,8.3634717 6.26224528,7.77386792 C5.74762264,7.31501887 5.40015094,6.74822642 5.29916981,6.5749434 C5.19818868,6.40167925 5.28843396,6.30803774 5.37509434,6.22173585 C5.45296226,6.14420755 5.54820755,6.01960377 5.63477358,5.91854717 C5.72132075,5.81750943 5.75018868,5.74528302 5.80788679,5.62979245 C5.86560377,5.51428302 5.83673585,5.41320755 5.79345283,5.32658491 C5.75018868,5.23996226 5.4039434,4.38811321 5.25967925,4.04160377 C5.11916981,3.70413208 4.97641509,3.74979245 4.87015094,3.74449057 C4.76928302,3.7394717 4.65375472,3.73841509 4.53835849,3.73841509 C4.42296226,3.73841509 4.23539623,3.78171698 4.07671698,3.95498113 C3.91803774,4.12824528 3.47081132,4.5469434 3.47081132,5.39877358 C3.47081132,6.25060377 4.09113208,7.07356604 4.17769811,7.1890566 C4.26426415,7.30456604 5.39843396,9.05266038 7.13507547,9.80230189 C7.54813208,9.98060377 7.87058491,10.0870943 8.12201887,10.1668679 C8.53673585,10.2985472 8.91413208,10.2799811 9.21245283,10.235434 C9.5450566,10.1857547 10.2366792,9.81677358 10.3809811,9.41250943 C10.5252453,9.00822642 10.5252453,8.66173585 10.4819623,8.58954717 C10.4386792,8.51735849 10.323283,8.47403774 10.1501698,8.38739623 L10.1501698,8.38739623 Z" id="Shape" sketch:type="MSShapeGroup"></path>
            </g>
        </g>
    </g>
</svg>