<svg xmlns="http://www.w3.org/2000/svg" viewBox="0 0 26 26">
  <g fill="none" fill-rule="evenodd">
    <circle cx="13" cy="13" r="12" fill="#30BE2D"/>
    <path fill="#FFF" d="M17.892 8.042c-1.308-1.31-3.047-2.03-4.9-2.03-3.82 0-6.928 3.106-6.93 6.925 0 1.22.32 2.412.926 3.463l-.983 3.59 3.673-.964c1.012.552 2.15.842 3.31.843h.003c.002 0 0 0 0 0 3.82 0 6.928-3.11 6.93-6.928 0-1.85-.72-3.59-2.028-4.9zm-4.9 10.657h-.003c-1.034 0-2.048-.28-2.932-.803l-.21-.125-2.18.57.582-2.123-.137-.22c-.576-.915-.88-1.975-.88-3.063 0-3.174 2.584-5.756 5.76-5.756 1.54 0 2.985.6 4.072 1.69 1.087 1.087 1.686 2.534 1.685 4.072 0 3.174-2.585 5.757-5.76 5.757zm3.158-4.313c-.173-.086-1.024-.505-1.183-.563-.158-.057-.274-.086-.39.087-.115.174-.446.564-.547.68-.1.115-.202.13-.376.043-.173-.087-.73-.27-1.392-.86-.514-.458-.862-1.025-.963-1.198-.102-.173-.012-.267.075-.353.078-.078.173-.202.26-.303.086-.102.115-.175.173-.29.058-.116.03-.217-.015-.303-.043-.087-.39-.94-.533-1.285-.14-.338-.284-.292-.39-.298-.1-.005-.216-.006-.332-.006-.115 0-.303.044-.46.217-.16.173-.607.592-.607 1.444 0 .85.62 1.674.708 1.79.086.115 1.22 1.863 2.957 2.612.413.18.736.285.987.365.415.132.792.113 1.09.068.333-.05 1.025-.418 1.17-.822.143-.405.143-.75.1-.823-.043-.073-.16-.116-.332-.203z"/>
  </g>
</svg>
