<?xml version="1.0" standalone="no"?>
<!DOCTYPE svg PUBLIC "-//W3C//DTD SVG 20010904//EN"
 "http://www.w3.org/TR/2001/REC-SVG-20010904/DTD/svg10.dtd">
<svg version="1.0" xmlns="http://www.w3.org/2000/svg"
 width="512.000000pt" height="512.000000pt" viewBox="0 0 512.000000 512.000000"
 preserveAspectRatio="xMidYMid meet">
<metadata>
Created by potrace 1.11, written by Peter Selinger 2001-2013
</metadata>
<g transform="translate(0.000000,512.000000) scale(0.100000,-0.100000)"
fill="#000000" stroke="none">
<path d="M2300 4829 c-535 -65 -1025 -312 -1393 -699 -314 -330 -513 -726
-598 -1190 -26 -140 -36 -467 -19 -621 86 -793 562 -1473 1274 -1819 632 -308
1370 -308 2002 0 712 346 1188 1026 1274 1819 17 154 7 481 -19 621 -85 464
-284 860 -598 1190 -340 358 -769 587 -1273 682 -121 22 -522 33 -650 17z
m530 -30 c1076 -118 1927 -1020 1990 -2109 48 -833 -353 -1606 -1065 -2055
-258 -163 -584 -279 -898 -320 -152 -19 -432 -19 -584 0 -499 65 -950 289
-1308 649 -191 193 -315 366 -430 601 -134 273 -206 549 -224 850 -40 670 205
1302 685 1765 492 475 1144 695 1834 619z"/>
<path d="M2370 4459 c-270 -27 -575 -132 -810 -278 -825 -513 -1132 -1575
-706 -2447 389 -796 1262 -1219 2125 -1028 961 214 1602 1127 1476 2101 -84
645 -478 1189 -1066 1473 -316 152 -668 214 -1019 179z m510 -54 c763 -136
1356 -710 1516 -1470 35 -165 44 -457 20 -625 -135 -931 -915 -1610 -1849
-1610 -633 0 -1206 309 -1562 841 -209 313 -317 703 -302 1094 18 462 194 880
511 1212 301 316 674 507 1106 568 135 18 427 13 560 -10z"/>
<path d="M2380 4033 c-355 -57 -612 -183 -846 -417 -206 -207 -340 -454 -400
-741 -27 -127 -27 -443 -1 -565 90 -415 329 -754 682 -965 169 -101 366 -169
570 -196 121 -16 353 -6 470 20 597 132 1034 589 1137 1186 26 151 21 399 -10
535 -67 290 -191 518 -392 720 -227 229 -489 364 -805 415 -82 14 -340 19
-405 8z m-88 -1075 l3 -303 62 0 c77 0 58 -17 348 319 129 149 233 261 252
271 25 12 56 15 129 13 l97 -3 -257 -295 c-141 -162 -273 -310 -292 -328 l-35
-34 35 -31 c20 -18 159 -183 310 -367 l275 -335 -87 -3 c-148 -5 -120 -26
-395 296 -135 158 -257 298 -271 311 -23 21 -36 25 -99 25 l-72 1 -3 -318 -2
-318 -98 3 -97 3 -3 698 -2 697 100 0 100 0 2 -302z"/>
</g>
</svg>
